<?xml version="1.0" encoding="UTF-8"?>
<!DOCTYPE svg PUBLIC "-//W3C//DTD SVG 1.1//EN" "http://www.w3.org/Graphics/SVG/1.1/DTD/svg11.dtd">
<svg xmlns="http://www.w3.org/2000/svg" version="1.1" width="500px" height="500px" style="shape-rendering:geometricPrecision; text-rendering:geometricPrecision; image-rendering:optimizeQuality; fill-rule:evenodd; clip-rule:evenodd" xmlns:xlink="http://www.w3.org/1999/xlink">
<g><path style="opacity:0.004" fill="#fefffe" d="M 112.5,9.5 C 113.833,10.1667 113.833,10.1667 112.5,9.5 Z"/></g>
<g><path style="opacity:0.004" fill="#fefffe" d="M 380.5,12.5 C 381.833,13.1667 381.833,13.1667 380.5,12.5 Z"/></g>
<g><path style="opacity:0.004" fill="#fefffe" d="M 427.5,14.5 C 428.833,15.1667 428.833,15.1667 427.5,14.5 Z"/></g>
<g><path style="opacity:0.004" fill="#fefffe" d="M 446.5,22.5 C 447.833,23.1667 447.833,23.1667 446.5,22.5 Z"/></g>
<g><path style="opacity:0.004" fill="#fefffe" d="M 426.5,24.5 C 427.833,25.1667 427.833,25.1667 426.5,24.5 Z"/></g>
<g><path style="opacity:0.004" fill="#fefffe" d="M 427.5,35.5 C 428.833,36.1667 428.833,36.1667 427.5,35.5 Z"/></g>
<g><path style="opacity:0.004" fill="#fefffe" d="M 393.5,46.5 C 394.833,47.1667 394.833,47.1667 393.5,46.5 Z"/></g>
<g><path style="opacity:0.004" fill="#fefffe" d="M 353.5,50.5 C 354.833,51.1667 354.833,51.1667 353.5,50.5 Z"/></g>
<g><path style="opacity:0.004" fill="#fefffe" d="M 308.5,53.5 C 309.833,54.1667 309.833,54.1667 308.5,53.5 Z"/></g>
<g><path style="opacity:0.004" fill="#fefffe" d="M 285.5,60.5 C 286.833,61.1667 286.833,61.1667 285.5,60.5 Z"/></g>
<g><path style="opacity:0.004" fill="#fefffe" d="M 280.5,62.5 C 281.833,63.1667 281.833,63.1667 280.5,62.5 Z"/></g>
<g><path style="opacity:0.004" fill="#fefffe" d="M 353.5,77.5 C 354.833,78.1667 354.833,78.1667 353.5,77.5 Z"/></g>
<g><path style="opacity:0.004" fill="#fefffe" d="M 480.5,77.5 C 481.833,78.1667 481.833,78.1667 480.5,77.5 Z"/></g>
<g><path style="opacity:0.004" fill="#fefffe" d="M 336.5,84.5 C 337.833,85.1667 337.833,85.1667 336.5,84.5 Z"/></g>
<g><path style="opacity:0.004" fill="#fefffe" d="M 371.5,87.5 C 372.833,88.1667 372.833,88.1667 371.5,87.5 Z"/></g>
<g><path style="opacity:1" fill="#2d588d" d="M 264.5,85.5 C 263.235,86.4793 261.901,87.4793 260.5,88.5C 263.168,90.9534 266.501,92.9534 270.5,94.5C 271.131,98.0344 271.798,101.534 272.5,105C 271.069,105.465 269.903,106.299 269,107.5C 268.346,106.304 267.846,106.304 267.5,107.5C 268.5,108.167 269.5,108.833 270.5,109.5C 269.051,110.172 267.718,110.839 266.5,111.5C 263.568,110.77 260.568,110.937 257.5,112C 258.738,112.69 258.738,113.19 257.5,113.5C 249.545,108.379 243.212,109.879 238.5,118C 236.753,118.352 235.086,118.852 233.5,119.5C 232.866,118.053 231.699,117.387 230,117.5C 228.449,118.054 226.949,118.72 225.5,119.5C 222.81,118.259 220.144,117.093 217.5,116C 220.23,115.272 222.897,115.438 225.5,116.5C 226.5,116.167 227.167,115.5 227.5,114.5C 223.656,113.018 219.656,112.185 215.5,112C 216.167,111.667 216.833,111.333 217.5,111C 216.643,110.311 215.977,109.478 215.5,108.5C 217.297,107.305 218.297,105.638 218.5,103.5C 220.591,103.682 222.591,103.348 224.5,102.5C 224.906,103.557 224.906,104.891 224.5,106.5C 227.205,106.62 227.872,105.62 226.5,103.5C 228.149,102.352 229.649,101.019 231,99.5C 231.914,100.654 232.747,100.487 233.5,99C 235.473,98.5045 237.473,98.3379 239.5,98.5C 239.5,96.8333 239.5,95.1667 239.5,93.5C 234.533,93.6792 230.2,92.1792 226.5,89C 231.065,85.2257 235.899,84.0591 241,85.5C 241.227,82.9405 242.56,81.2738 245,80.5C 245.311,81.7425 244.811,82.7425 243.5,83.5C 243.938,84.5063 244.604,84.5063 245.5,83.5C 246.142,86.7973 247.309,87.1307 249,84.5C 250.738,85.1271 252.571,85.4604 254.5,85.5C 258.01,83.5124 261.343,83.5124 264.5,85.5 Z"/></g>
<g><path style="opacity:0.004" fill="#fefffe" d="M 286.5,89.5 C 287.833,90.1667 287.833,90.1667 286.5,89.5 Z"/></g>
<g><path style="opacity:1" fill="#2c5387" d="M 267.5,83.5 C 267.577,84.7498 268.244,85.5831 269.5,86C 267.735,86.6397 266.068,86.4731 264.5,85.5C 261.343,83.5124 258.01,83.5124 254.5,85.5C 252.571,85.4604 250.738,85.1271 249,84.5C 247.309,87.1307 246.142,86.7973 245.5,83.5C 244.604,84.5063 243.938,84.5063 243.5,83.5C 244.811,82.7425 245.311,81.7425 245,80.5C 242.56,81.2738 241.227,82.9405 241,85.5C 235.899,84.0591 231.065,85.2257 226.5,89C 230.2,92.1792 234.533,93.6792 239.5,93.5C 239.5,95.1667 239.5,96.8333 239.5,98.5C 237.473,98.3379 235.473,98.5045 233.5,99C 232.747,100.487 231.914,100.654 231,99.5C 229.649,101.019 228.149,102.352 226.5,103.5C 227.872,105.62 227.205,106.62 224.5,106.5C 224.906,104.891 224.906,103.557 224.5,102.5C 222.591,103.348 220.591,103.682 218.5,103.5C 218.297,105.638 217.297,107.305 215.5,108.5C 215.977,109.478 216.643,110.311 217.5,111C 216.833,111.333 216.167,111.667 215.5,112C 219.656,112.185 223.656,113.018 227.5,114.5C 227.167,115.5 226.5,116.167 225.5,116.5C 222.897,115.438 220.23,115.272 217.5,116C 220.144,117.093 222.81,118.259 225.5,119.5C 226.949,118.72 228.449,118.054 230,117.5C 231.699,117.387 232.866,118.053 233.5,119.5C 230.339,120.976 227.005,121.976 223.5,122.5C 219.307,121.676 215.14,120.342 211,118.5C 209.287,119.137 209.121,120.137 210.5,121.5C 209.675,122.386 208.675,122.719 207.5,122.5C 207.851,119.762 208.518,117.096 209.5,114.5C 208.565,111.94 209.399,111.274 212,112.5C 212.167,112 212.333,111.5 212.5,111C 211.313,108.276 210.647,105.443 210.5,102.5C 208.641,102.539 207.308,101.706 206.5,100C 206.324,98.3403 206.991,96.6736 208.5,95C 207.906,94.5357 207.239,94.369 206.5,94.5C 220.11,87.2809 234.277,81.2809 249,76.5C 255.505,77.946 261.672,80.2793 267.5,83.5 Z"/></g>
<g><path style="opacity:1" fill="#366092" d="M 267.5,83.5 C 291.036,93.8805 314.37,104.214 337.5,114.5C 337.389,115.117 337.056,115.617 336.5,116C 339.156,117.582 341.823,119.249 344.5,121C 343.167,121.667 341.833,121.667 340.5,121C 338.026,116.184 335.86,116.351 334,121.5C 330.713,118.075 327.213,115.241 323.5,113C 322.056,112.219 320.723,112.386 319.5,113.5C 319.66,116.077 321.327,117.91 324.5,119C 322.641,120.558 321.141,122.391 320,124.5C 318.512,122.18 316.679,122.013 314.5,124C 315.437,129.249 313.104,132.083 307.5,132.5C 307.36,134.124 308.027,135.29 309.5,136C 302.833,137.333 302.833,138.667 309.5,140C 308.167,141 308.167,142 309.5,143C 305.678,144.693 306.011,146.027 310.5,147C 308.289,148.839 306.123,148.672 304,146.5C 304.077,145.262 303.911,144.262 303.5,143.5C 302.833,144.833 302.167,146.167 301.5,147.5C 300.269,146.349 300.269,145.183 301.5,144C 299.801,143.607 298.301,144.107 297,145.5C 295.238,145.056 295.405,144.556 297.5,144C 296.241,143.018 294.908,142.685 293.5,143C 295.017,146.693 294.684,150.193 292.5,153.5C 291.232,152.572 289.899,152.405 288.5,153C 290.544,153.498 291.878,154.665 292.5,156.5C 278.668,163.221 264.668,169.554 250.5,175.5C 250.167,175.5 249.833,175.5 249.5,175.5C 249.389,174.883 249.056,174.383 248.5,174C 250.491,173.626 252.158,172.793 253.5,171.5C 260.58,168.935 267.58,166.102 274.5,163C 273.5,162.667 272.5,162.333 271.5,162C 272.833,161.333 272.833,160.667 271.5,160C 273.657,156.844 276.157,154.011 279,151.5C 279.619,147.964 278.452,145.131 275.5,143C 275.957,142.586 276.291,142.086 276.5,141.5C 275.284,140.904 273.951,140.737 272.5,141C 271.366,139.984 271.699,139.317 273.5,139C 272.833,138.333 272.167,137.667 271.5,137C 268.833,136.667 266.167,136.333 263.5,136C 263.727,134.865 264.06,133.698 264.5,132.5C 265.631,133.751 266.964,134.751 268.5,135.5C 269.167,135.167 269.833,134.833 270.5,134.5C 269.902,133.205 269.402,131.872 269,130.5C 267.844,131.993 267.01,131.826 266.5,130C 266.645,129.228 266.978,128.561 267.5,128C 269.167,127.667 270.833,127.333 272.5,127C 269.836,126.459 267.169,125.292 264.5,123.5C 266.256,123.64 267.922,123.14 269.5,122C 268.24,120.887 267.073,120.72 266,121.5C 265.833,121.167 265.667,120.833 265.5,120.5C 266.376,119.749 267.376,119.249 268.5,119C 264.416,115.57 265.083,113.236 270.5,112C 269.207,111.51 267.873,111.343 266.5,111.5C 267.718,110.839 269.051,110.172 270.5,109.5C 269.5,108.833 268.5,108.167 267.5,107.5C 267.846,106.304 268.346,106.304 269,107.5C 269.903,106.299 271.069,105.465 272.5,105C 271.798,101.534 271.131,98.0344 270.5,94.5C 266.501,92.9534 263.168,90.9534 260.5,88.5C 261.901,87.4793 263.235,86.4793 264.5,85.5C 266.068,86.4731 267.735,86.6397 269.5,86C 268.244,85.5831 267.577,84.7498 267.5,83.5 Z"/></g>
<g><path style="opacity:0.004" fill="#fefffe" d="M 491.5,107.5 C 492.833,108.167 492.833,108.167 491.5,107.5 Z"/></g>
<g><path style="opacity:0.004" fill="#fefffe" d="M 48.5,110.5 C 49.8333,111.167 49.8333,111.167 48.5,110.5 Z"/></g>
<g><path style="opacity:1" fill="#285287" d="M 206.5,94.5 C 207.239,94.369 207.906,94.5357 208.5,95C 206.991,96.6736 206.324,98.3403 206.5,100C 207.308,101.706 208.641,102.539 210.5,102.5C 210.647,105.443 211.313,108.276 212.5,111C 212.333,111.5 212.167,112 212,112.5C 209.399,111.274 208.565,111.94 209.5,114.5C 208.518,117.096 207.851,119.762 207.5,122.5C 208.675,122.719 209.675,122.386 210.5,121.5C 209.121,120.137 209.287,119.137 211,118.5C 215.14,120.342 219.307,121.676 223.5,122.5C 220.202,123.493 216.868,124.493 213.5,125.5C 211.95,124.268 210.283,123.768 208.5,124C 206.543,125.746 205.543,127.912 205.5,130.5C 200.08,131.37 194.747,131.203 189.5,130C 188.333,129.5 187.5,128.667 187,127.5C 184.767,130.6 181.934,131.266 178.5,129.5C 177.833,129.833 177.167,130.167 176.5,130.5C 180.028,133.605 183.695,133.939 187.5,131.5C 188.966,132.135 190.3,132.969 191.5,134C 186.215,135.026 180.882,135.693 175.5,136C 173.102,137.432 170.769,138.932 168.5,140.5C 158.986,135.988 149.319,131.655 139.5,127.5C 143.4,125.877 147.067,123.711 150.5,121C 154.293,121.092 157.627,120.092 160.5,118C 164.139,117.506 167.473,117.006 170.5,116.5C 171.478,116.977 172.311,117.643 173,118.5C 173.309,117.234 173.809,116.067 174.5,115C 173.551,114.383 172.718,114.549 172,115.5C 171.333,114.833 171.333,114.167 172,113.5C 175.899,111.029 180.066,109.029 184.5,107.5C 187.433,105.262 187.099,104.262 183.5,104.5C 190.845,100.815 198.511,97.4818 206.5,94.5 Z"/></g>
<g><path style="opacity:1" fill="#2c4874" d="M 183.5,104.5 C 187.099,104.262 187.433,105.262 184.5,107.5C 180.066,109.029 175.899,111.029 172,113.5C 171.333,114.167 171.333,114.833 172,115.5C 172.718,114.549 173.551,114.383 174.5,115C 173.809,116.067 173.309,117.234 173,118.5C 172.311,117.643 171.478,116.977 170.5,116.5C 167.473,117.006 164.139,117.506 160.5,118C 157.627,120.092 154.293,121.092 150.5,121C 147.067,123.711 143.4,125.877 139.5,127.5C 138.504,127.586 137.671,127.252 137,126.5C 136.278,129.261 136.445,131.927 137.5,134.5C 134.143,132.199 133.643,129.199 136,125.5C 138.58,123.747 141.413,122.747 144.5,122.5C 145.71,122.068 146.71,121.401 147.5,120.5C 159.274,114.612 171.274,109.279 183.5,104.5 Z"/></g>
<g><path style="opacity:0.004" fill="#fefffe" d="M 59.5,115.5 C 60.8333,116.167 60.8333,116.167 59.5,115.5 Z"/></g>
<g><path style="opacity:0.063" fill="#a6b5c7" d="M 147.5,120.5 C 146.71,121.401 145.71,122.068 144.5,122.5C 144.821,120.952 145.821,120.285 147.5,120.5 Z"/></g>
<g><path style="opacity:1" fill="#3d6798" d="M 337.5,114.5 C 345.842,118.005 354.175,121.505 362.5,125C 363.252,125.671 363.586,126.504 363.5,127.5C 362.262,126.588 360.928,126.421 359.5,127C 337.35,137.412 315.016,147.246 292.5,156.5C 291.878,154.665 290.544,153.498 288.5,153C 289.899,152.405 291.232,152.572 292.5,153.5C 294.684,150.193 295.017,146.693 293.5,143C 294.908,142.685 296.241,143.018 297.5,144C 295.405,144.556 295.238,145.056 297,145.5C 298.301,144.107 299.801,143.607 301.5,144C 300.269,145.183 300.269,146.349 301.5,147.5C 302.167,146.167 302.833,144.833 303.5,143.5C 303.911,144.262 304.077,145.262 304,146.5C 306.123,148.672 308.289,148.839 310.5,147C 306.011,146.027 305.678,144.693 309.5,143C 308.167,142 308.167,141 309.5,140C 302.833,138.667 302.833,137.333 309.5,136C 308.027,135.29 307.36,134.124 307.5,132.5C 313.104,132.083 315.437,129.249 314.5,124C 316.679,122.013 318.512,122.18 320,124.5C 321.141,122.391 322.641,120.558 324.5,119C 321.327,117.91 319.66,116.077 319.5,113.5C 320.723,112.386 322.056,112.219 323.5,113C 327.213,115.241 330.713,118.075 334,121.5C 335.86,116.351 338.026,116.184 340.5,121C 341.833,121.667 343.167,121.667 344.5,121C 341.823,119.249 339.156,117.582 336.5,116C 337.056,115.617 337.389,115.117 337.5,114.5 Z"/></g>
<g><path style="opacity:0.004" fill="#fefffe" d="M 432.5,121.5 C 433.833,122.167 433.833,122.167 432.5,121.5 Z"/></g>
<g><path style="opacity:1" fill="#1d365c" d="M 257.5,113.5 C 258.511,117.112 258.678,120.779 258,124.5C 257.005,125.066 256.172,125.733 255.5,126.5C 251.017,128.799 246.35,129.132 241.5,127.5C 234.692,128.142 228.525,130.475 223,134.5C 222.439,133.978 221.772,133.645 221,133.5C 217.829,134.222 214.662,134.889 211.5,135.5C 211.5,135.167 211.5,134.833 211.5,134.5C 219.023,131.872 226.69,129.372 234.5,127C 235.056,126.617 235.389,126.117 235.5,125.5C 237.288,125.785 238.955,125.452 240.5,124.5C 239.691,122.929 239.357,121.262 239.5,119.5C 236.521,120.317 233.521,121.151 230.5,122C 229.944,122.383 229.611,122.883 229.5,123.5C 221.35,125.237 213.35,127.571 205.5,130.5C 205.543,127.912 206.543,125.746 208.5,124C 210.283,123.768 211.95,124.268 213.5,125.5C 216.868,124.493 220.202,123.493 223.5,122.5C 227.005,121.976 230.339,120.976 233.5,119.5C 235.086,118.852 236.753,118.352 238.5,118C 243.212,109.879 249.545,108.379 257.5,113.5 Z"/></g>
<g><path style="opacity:1" fill="#ceb275" d="M 235.5,125.5 C 236.398,124.842 237.398,124.176 238.5,123.5C 235.502,122.357 232.502,122.357 229.5,123.5C 229.611,122.883 229.944,122.383 230.5,122C 233.521,121.151 236.521,120.317 239.5,119.5C 239.357,121.262 239.691,122.929 240.5,124.5C 238.955,125.452 237.288,125.785 235.5,125.5 Z"/></g>
<g><path style="opacity:1" fill="#265083" d="M 247.5,112.5 C 254.946,112.421 257.446,115.755 255,122.5C 250.96,126.478 246.96,126.478 243,122.5C 242.182,119.773 242.348,117.106 243.5,114.5C 245.026,114.006 246.359,113.339 247.5,112.5 Z"/></g>
<g><path style="opacity:0.004" fill="#fefffe" d="M 95.5,129.5 C 96.8333,130.167 96.8333,130.167 95.5,129.5 Z"/></g>
<g><path style="opacity:1" fill="#17345b" d="M 139.5,127.5 C 149.319,131.655 158.986,135.988 168.5,140.5C 168.5,141.167 168.5,141.833 168.5,142.5C 168.5,143.167 168.5,143.833 168.5,144.5C 167.833,144.833 167.167,145.167 166.5,145.5C 165.1,146.1 164.1,147.1 163.5,148.5C 163.586,147.504 163.252,146.671 162.5,146C 154.01,142.301 145.676,138.467 137.5,134.5C 136.445,131.927 136.278,129.261 137,126.5C 137.671,127.252 138.504,127.586 139.5,127.5 Z"/></g>
<g><path style="opacity:1" fill="#2b486c" d="M 205.5,130.5 C 204.167,131.167 202.833,131.833 201.5,132.5C 190.603,135.977 179.603,139.31 168.5,142.5C 168.5,141.833 168.5,141.167 168.5,140.5C 170.769,138.932 173.102,137.432 175.5,136C 180.882,135.693 186.215,135.026 191.5,134C 190.3,132.969 188.966,132.135 187.5,131.5C 183.695,133.939 180.028,133.605 176.5,130.5C 177.167,130.167 177.833,129.833 178.5,129.5C 181.934,131.266 184.767,130.6 187,127.5C 187.5,128.667 188.333,129.5 189.5,130C 194.747,131.203 200.08,131.37 205.5,130.5 Z"/></g>
<g><path style="opacity:1" fill="#e9b45b" d="M 235.5,125.5 C 235.389,126.117 235.056,126.617 234.5,127C 226.69,129.372 219.023,131.872 211.5,134.5C 206.839,135.342 202.172,135.842 197.5,136C 199.324,135.34 200.657,134.173 201.5,132.5C 202.833,131.833 204.167,131.167 205.5,130.5C 213.35,127.571 221.35,125.237 229.5,123.5C 232.502,122.357 235.502,122.357 238.5,123.5C 237.398,124.176 236.398,124.842 235.5,125.5 Z"/></g>
<g><path style="opacity:1" fill="#e0b46b" d="M 201.5,132.5 C 200.657,134.173 199.324,135.34 197.5,136C 202.172,135.842 206.839,135.342 211.5,134.5C 211.5,134.833 211.5,135.167 211.5,135.5C 207.708,135.726 204.041,136.56 200.5,138C 199.944,138.383 199.611,138.883 199.5,139.5C 195.751,139.751 192.085,140.417 188.5,141.5C 190.382,140.249 192.382,139.082 194.5,138C 193.667,137.833 192.833,137.667 192,137.5C 184.066,139.607 176.232,141.94 168.5,144.5C 168.5,143.833 168.5,143.167 168.5,142.5C 179.603,139.31 190.603,135.977 201.5,132.5 Z"/></g>
<g><path style="opacity:1" fill="#2d588c" d="M 255.5,126.5 C 254.862,128.46 254.862,130.293 255.5,132C 248.976,131.721 248.976,132.555 255.5,134.5C 255.377,138.475 255.377,142.475 255.5,146.5C 255.833,147.167 256.167,147.833 256.5,148.5C 259.103,147.438 261.77,147.272 264.5,148C 263.809,149.067 263.309,150.234 263,151.5C 262.149,148.388 260.983,148.054 259.5,150.5C 260.275,154.008 260.275,157.341 259.5,160.5C 258.833,161.167 258.167,161.833 257.5,162.5C 259.005,163.842 259.672,165.508 259.5,167.5C 257.089,167.137 255.589,168.137 255,170.5C 252.821,169.16 252.321,169.493 253.5,171.5C 252.158,172.793 250.491,173.626 248.5,174C 249.056,174.383 249.389,174.883 249.5,175.5C 232.708,168.604 216.042,161.437 199.5,154C 193.855,151.423 188.522,148.59 183.5,145.5C 188.845,143.498 194.178,141.498 199.5,139.5C 199.611,138.883 199.944,138.383 200.5,138C 204.041,136.56 207.708,135.726 211.5,135.5C 214.662,134.889 217.829,134.222 221,133.5C 221.772,133.645 222.439,133.978 223,134.5C 228.525,130.475 234.692,128.142 241.5,127.5C 246.35,129.132 251.017,128.799 255.5,126.5 Z"/></g>
<g><path style="opacity:1" fill="#315e90" d="M 266.5,111.5 C 267.873,111.343 269.207,111.51 270.5,112C 265.083,113.236 264.416,115.57 268.5,119C 267.376,119.249 266.376,119.749 265.5,120.5C 265.667,120.833 265.833,121.167 266,121.5C 267.073,120.72 268.24,120.887 269.5,122C 267.922,123.14 266.256,123.64 264.5,123.5C 267.169,125.292 269.836,126.459 272.5,127C 270.833,127.333 269.167,127.667 267.5,128C 266.978,128.561 266.645,129.228 266.5,130C 267.01,131.826 267.844,131.993 269,130.5C 269.402,131.872 269.902,133.205 270.5,134.5C 269.833,134.833 269.167,135.167 268.5,135.5C 266.964,134.751 265.631,133.751 264.5,132.5C 264.06,133.698 263.727,134.865 263.5,136C 266.167,136.333 268.833,136.667 271.5,137C 272.167,137.667 272.833,138.333 273.5,139C 271.699,139.317 271.366,139.984 272.5,141C 273.951,140.737 275.284,140.904 276.5,141.5C 276.291,142.086 275.957,142.586 275.5,143C 278.452,145.131 279.619,147.964 279,151.5C 276.157,154.011 273.657,156.844 271.5,160C 272.833,160.667 272.833,161.333 271.5,162C 272.5,162.333 273.5,162.667 274.5,163C 267.58,166.102 260.58,168.935 253.5,171.5C 252.321,169.493 252.821,169.16 255,170.5C 255.589,168.137 257.089,167.137 259.5,167.5C 259.672,165.508 259.005,163.842 257.5,162.5C 258.167,161.833 258.833,161.167 259.5,160.5C 260.275,157.341 260.275,154.008 259.5,150.5C 260.983,148.054 262.149,148.388 263,151.5C 263.309,150.234 263.809,149.067 264.5,148C 261.77,147.272 259.103,147.438 256.5,148.5C 256.167,147.833 255.833,147.167 255.5,146.5C 255.377,142.475 255.377,138.475 255.5,134.5C 248.976,132.555 248.976,131.721 255.5,132C 254.862,130.293 254.862,128.46 255.5,126.5C 256.172,125.733 257.005,125.066 258,124.5C 258.678,120.779 258.511,117.112 257.5,113.5C 258.738,113.19 258.738,112.69 257.5,112C 260.568,110.937 263.568,110.77 266.5,111.5 Z"/></g>
<g><path style="opacity:1" fill="#34373f" d="M 199.5,139.5 C 194.178,141.498 188.845,143.498 183.5,145.5C 180.159,145.803 177.159,146.97 174.5,149C 173.316,150.145 173.316,151.312 174.5,152.5C 173.833,152.5 173.167,152.5 172.5,152.5C 171.272,150.99 171.272,149.49 172.5,148C 177.848,145.721 183.181,143.554 188.5,141.5C 192.085,140.417 195.751,139.751 199.5,139.5 Z"/></g>
<g><path style="opacity:1" fill="#204570" d="M 363.5,127.5 C 364.795,131.416 363.462,134.249 359.5,136C 346.483,141.843 333.483,147.676 320.5,153.5C 319.513,156.768 319.18,160.102 319.5,163.5C 318.532,161.393 318.198,159.059 318.5,156.5C 318.737,155.209 318.404,154.209 317.5,153.5C 312.437,152.248 307.937,153.581 304,157.5C 303.667,157.167 303.333,156.833 303,156.5C 287.011,163.583 271.177,170.749 255.5,178C 254.167,178.667 252.833,178.667 251.5,178C 252.566,176.841 252.233,176.008 250.5,175.5C 264.668,169.554 278.668,163.221 292.5,156.5C 315.016,147.246 337.35,137.412 359.5,127C 360.928,126.421 362.262,126.588 363.5,127.5 Z"/></g>
<g><path style="opacity:1" fill="#e5aa50" d="M 188.5,141.5 C 183.181,143.554 177.848,145.721 172.5,148C 171.272,149.49 171.272,150.99 172.5,152.5C 171.508,159.982 171.175,167.648 171.5,175.5C 171.192,177.924 171.526,180.257 172.5,182.5C 173.95,179.859 174.617,180.192 174.5,183.5C 174.003,185.818 173.67,188.152 173.5,190.5C 172.5,190.5 171.5,190.5 170.5,190.5C 172.14,189.21 172.64,187.543 172,185.5C 170.908,182.612 169.408,179.945 167.5,177.5C 166.817,177.863 166.15,178.196 165.5,178.5C 165.5,177.833 165.5,177.167 165.5,176.5C 165.192,166.085 165.525,155.751 166.5,145.5C 167.167,145.167 167.833,144.833 168.5,144.5C 176.232,141.94 184.066,139.607 192,137.5C 192.833,137.667 193.667,137.833 194.5,138C 192.382,139.082 190.382,140.249 188.5,141.5 Z"/></g>
<g><path style="opacity:0.004" fill="#fefffe" d="M 346.5,154.5 C 347.833,155.167 347.833,155.167 346.5,154.5 Z"/></g>
<g><path style="opacity:0.004" fill="#fefffe" d="M 424.5,154.5 C 425.833,155.167 425.833,155.167 424.5,154.5 Z"/></g>
<g><path style="opacity:0.995" fill="#353649" d="M 166.5,145.5 C 165.525,155.751 165.192,166.085 165.5,176.5C 164.542,176.953 163.708,177.619 163,178.5C 162.966,183.589 162.8,188.589 162.5,193.5C 161.833,194.167 161.167,194.833 160.5,195.5C 160.5,193.833 160.5,192.167 160.5,190.5C 160.611,189.883 160.944,189.383 161.5,189C 159.955,187.178 159.288,185.011 159.5,182.5C 159.081,179.253 160.081,176.586 162.5,174.5C 163.498,165.859 163.831,157.192 163.5,148.5C 164.1,147.1 165.1,146.1 166.5,145.5 Z"/></g>
<g><path style="opacity:1" fill="#0d2a4e" d="M 179.5,154.5 C 180.507,157.322 181.34,160.322 182,163.5C 182.49,162.207 182.657,160.873 182.5,159.5C 184.199,159.34 185.866,159.506 187.5,160C 194.604,163.734 201.271,166.901 207.5,169.5C 207.5,170.5 207.5,171.5 207.5,172.5C 221.508,178.333 235.841,183.333 250.5,187.5C 250.716,189.681 249.883,191.347 248,192.5C 246.75,191.427 245.416,191.427 244,192.5C 243.619,191.518 242.786,190.852 241.5,190.5C 239.865,191.046 238.199,191.38 236.5,191.5C 236.66,193.199 236.494,194.866 236,196.5C 235.275,197.059 234.442,197.392 233.5,197.5C 230.71,196.403 227.877,195.403 225,194.5C 224.228,194.645 223.561,194.978 223,195.5C 221.333,194.167 219.667,192.833 218,191.5C 213.571,192.3 209.738,190.967 206.5,187.5C 204.729,188.035 204.396,188.869 205.5,190C 200.521,191.248 200.521,192.748 205.5,194.5C 203.708,194.366 202.042,194.699 200.5,195.5C 194.433,193.982 188.433,192.148 182.5,190C 181.333,188.833 180.167,187.667 179,186.5C 179.043,175.844 179.21,165.177 179.5,154.5 Z"/></g>
<g><path style="opacity:0.004" fill="#fefffe" d="M 462.5,165.5 C 463.833,166.167 463.833,166.167 462.5,165.5 Z"/></g>
<g><path style="opacity:0.004" fill="#fefffe" d="M 45.5,166.5 C 46.8333,167.167 46.8333,167.167 45.5,166.5 Z"/></g>
<g><path style="opacity:1" fill="#031e3e" d="M 178.5,154.5 C 178.917,153.876 179.584,153.543 180.5,153.5C 183.119,154.985 185.952,155.985 189,156.5C 208.898,165.45 228.898,174.117 249,182.5C 251.253,182.369 253.419,181.869 255.5,181C 276.318,171.905 296.984,162.738 317.5,153.5C 318.404,154.209 318.737,155.209 318.5,156.5C 317.06,157.363 315.726,157.363 314.5,156.5C 311.829,159.188 308.496,160.688 304.5,161C 296.014,166.047 287.347,170.714 278.5,175C 274.93,176.31 271.263,177.143 267.5,177.5C 267.67,178.822 267.337,179.989 266.5,181C 262.841,182.255 259.341,183.755 256,185.5C 255.333,184.833 254.667,184.167 254,183.5C 251.929,184.103 250.762,185.436 250.5,187.5C 235.841,183.333 221.508,178.333 207.5,172.5C 207.5,171.5 207.5,170.5 207.5,169.5C 201.271,166.901 194.604,163.734 187.5,160C 185.866,159.506 184.199,159.34 182.5,159.5C 182.657,160.873 182.49,162.207 182,163.5C 181.34,160.322 180.507,157.322 179.5,154.5C 179.167,154.5 178.833,154.5 178.5,154.5 Z"/></g>
<g><path style="opacity:1" fill="#10335b" d="M 183.5,145.5 C 188.522,148.59 193.855,151.423 199.5,154C 216.042,161.437 232.708,168.604 249.5,175.5C 249.833,175.5 250.167,175.5 250.5,175.5C 252.233,176.008 252.566,176.841 251.5,178C 252.833,178.667 254.167,178.667 255.5,178C 271.177,170.749 287.011,163.583 303,156.5C 303.333,156.833 303.667,157.167 304,157.5C 307.937,153.581 312.437,152.248 317.5,153.5C 296.984,162.738 276.318,171.905 255.5,181C 253.419,181.869 251.253,182.369 249,182.5C 228.898,174.117 208.898,165.45 189,156.5C 185.952,155.985 183.119,154.985 180.5,153.5C 179.584,153.543 178.917,153.876 178.5,154.5C 177.167,153.833 175.833,153.167 174.5,152.5C 173.316,151.312 173.316,150.145 174.5,149C 177.159,146.97 180.159,145.803 183.5,145.5 Z"/></g>
<g><path style="opacity:0.004" fill="#fefffe" d="M 142.5,173.5 C 143.833,174.167 143.833,174.167 142.5,173.5 Z"/></g>
<g><path style="opacity:1" fill="#c5975b" d="M 165.5,176.5 C 165.5,177.167 165.5,177.833 165.5,178.5C 162.913,181.685 162.913,185.018 165.5,188.5C 165.043,190.598 164.043,192.264 162.5,193.5C 162.8,188.589 162.966,183.589 163,178.5C 163.708,177.619 164.542,176.953 165.5,176.5 Z"/></g>
<g><path style="opacity:0.004" fill="#fefffe" d="M 25.5,183.5 C 26.8333,184.167 26.8333,184.167 25.5,183.5 Z"/></g>
<g><path style="opacity:1" fill="#234b7c" d="M 313.5,191.5 C 312.432,192.434 311.099,192.768 309.5,192.5C 308.504,191.335 307.171,190.668 305.5,190.5C 297.227,193.425 288.893,196.258 280.5,199C 272.96,201.928 266.294,206.094 260.5,211.5C 256.719,211.974 253.552,213.641 251,216.5C 250.833,212.333 250.667,208.167 250.5,204C 250.562,199.317 251.228,194.817 252.5,190.5C 273.338,181.325 294.338,172.325 315.5,163.5C 316.281,164.729 316.781,166.062 317,167.5C 317.667,173.5 317.667,179.5 317,185.5C 314.929,186.525 312.762,187.358 310.5,188C 311.833,189 311.833,190 310.5,191C 311.448,191.483 312.448,191.649 313.5,191.5 Z"/></g>
<g><path style="opacity:0.004" fill="#fefffe" d="M 357.5,184.5 C 358.833,185.167 358.833,185.167 357.5,184.5 Z"/></g>
<g><path style="opacity:0.004" fill="#fefffe" d="M 408.5,190.5 C 409.833,191.167 409.833,191.167 408.5,190.5 Z"/></g>
<g><path style="opacity:1" fill="#efba6a" d="M 171.5,175.5 C 174.766,176.537 176.433,178.87 176.5,182.5C 176.06,184.765 175.394,186.932 174.5,189C 179.237,198.741 180.737,208.907 179,219.5C 173.743,222.293 168.243,222.96 162.5,221.5C 161.685,220.163 160.518,219.163 159,218.5C 158.503,215.854 158.336,213.187 158.5,210.5C 158.747,205.433 159.413,200.433 160.5,195.5C 161.167,194.833 161.833,194.167 162.5,193.5C 161.136,201.763 160.47,210.097 160.5,218.5C 163.418,219.454 166.418,220.121 169.5,220.5C 171.808,220.635 173.808,219.969 175.5,218.5C 175.291,217.914 174.957,217.414 174.5,217C 175.793,216.51 177.127,216.343 178.5,216.5C 178.665,213.482 178.498,210.482 178,207.5C 176.839,216.704 175.172,216.704 173,207.5C 172.879,201.681 172.046,196.014 170.5,190.5C 171.5,190.5 172.5,190.5 173.5,190.5C 173.67,188.152 174.003,185.818 174.5,183.5C 174.617,180.192 173.95,179.859 172.5,182.5C 171.526,180.257 171.192,177.924 171.5,175.5 Z"/></g>
<g><path style="opacity:0.804" fill="#6f899f" d="M 160.5,190.5 C 160.5,192.167 160.5,193.833 160.5,195.5C 159.131,197.691 158.131,200.025 157.5,202.5C 157.385,198.112 158.385,194.112 160.5,190.5 Z"/></g>
<g><path style="opacity:1" fill="#0f2f56" d="M 318.5,156.5 C 318.198,159.059 318.532,161.393 319.5,163.5C 320.533,170.344 321.033,177.344 321,184.5C 319.605,188.064 317.105,190.397 313.5,191.5C 312.448,191.649 311.448,191.483 310.5,191C 311.833,190 311.833,189 310.5,188C 312.762,187.358 314.929,186.525 317,185.5C 317.667,179.5 317.667,173.5 317,167.5C 316.781,166.062 316.281,164.729 315.5,163.5C 294.338,172.325 273.338,181.325 252.5,190.5C 251.228,194.817 250.562,199.317 250.5,204C 250.667,208.167 250.833,212.333 251,216.5C 253.552,213.641 256.719,211.974 260.5,211.5C 260.443,212.609 260.11,213.609 259.5,214.5C 259.5,215.167 259.167,215.5 258.5,215.5C 254.927,217.265 251.26,217.598 247.5,216.5C 239.217,210.061 230.217,204.727 220.5,200.5C 219.914,200.709 219.414,201.043 219,201.5C 214.806,198.501 210.306,196.168 205.5,194.5C 200.521,192.748 200.521,191.248 205.5,190C 204.396,188.869 204.729,188.035 206.5,187.5C 209.738,190.967 213.571,192.3 218,191.5C 219.667,192.833 221.333,194.167 223,195.5C 223.561,194.978 224.228,194.645 225,194.5C 227.877,195.403 230.71,196.403 233.5,197.5C 234.442,197.392 235.275,197.059 236,196.5C 236.494,194.866 236.66,193.199 236.5,191.5C 238.199,191.38 239.865,191.046 241.5,190.5C 242.786,190.852 243.619,191.518 244,192.5C 245.416,191.427 246.75,191.427 248,192.5C 249.883,191.347 250.716,189.681 250.5,187.5C 250.762,185.436 251.929,184.103 254,183.5C 254.667,184.167 255.333,184.833 256,185.5C 259.341,183.755 262.841,182.255 266.5,181C 267.337,179.989 267.67,178.822 267.5,177.5C 271.263,177.143 274.93,176.31 278.5,175C 287.347,170.714 296.014,166.047 304.5,161C 308.496,160.688 311.829,159.188 314.5,156.5C 315.726,157.363 317.06,157.363 318.5,156.5 Z"/></g>
<g><path style="opacity:0.004" fill="#fefffe" d="M 74.5,196.5 C 75.8333,197.167 75.8333,197.167 74.5,196.5 Z"/></g>
<g><path style="opacity:0.855" fill="#241f27" d="M 160.5,195.5 C 159.413,200.433 158.747,205.433 158.5,210.5C 157.833,212.833 157.167,215.167 156.5,217.5C 156.337,212.453 156.671,207.453 157.5,202.5C 158.131,200.025 159.131,197.691 160.5,195.5 Z"/></g>
<g><path style="opacity:1" fill="#1c2f49" d="M 205.5,194.5 C 210.306,196.168 214.806,198.501 219,201.5C 219.414,201.043 219.914,200.709 220.5,200.5C 230.217,204.727 239.217,210.061 247.5,216.5C 251.26,217.598 254.927,217.265 258.5,215.5C 258.027,216.906 257.027,217.573 255.5,217.5C 254.662,217.842 254.328,218.508 254.5,219.5C 250.915,219.848 247.582,219.181 244.5,217.5C 244.167,217.5 243.833,217.5 243.5,217.5C 242.833,217.5 242.5,217.167 242.5,216.5C 242.027,215.094 241.027,214.427 239.5,214.5C 226.891,207.362 213.891,201.029 200.5,195.5C 202.042,194.699 203.708,194.366 205.5,194.5 Z"/></g>
<g><path style="opacity:1" fill="#2c4061" d="M 309.5,192.5 C 298.649,196.733 287.649,200.9 276.5,205C 270.672,208.022 265.005,211.189 259.5,214.5C 260.11,213.609 260.443,212.609 260.5,211.5C 266.294,206.094 272.96,201.928 280.5,199C 288.893,196.258 297.227,193.425 305.5,190.5C 307.171,190.668 308.504,191.335 309.5,192.5 Z"/></g>
<g><path style="opacity:1" fill="#fab643" d="M 170.5,190.5 C 172.046,196.014 172.879,201.681 173,207.5C 175.172,216.704 176.839,216.704 178,207.5C 178.498,210.482 178.665,213.482 178.5,216.5C 177.127,216.343 175.793,216.51 174.5,217C 174.957,217.414 175.291,217.914 175.5,218.5C 173.808,219.969 171.808,220.635 169.5,220.5C 166.418,220.121 163.418,219.454 160.5,218.5C 160.47,210.097 161.136,201.763 162.5,193.5C 164.043,192.264 165.043,190.598 165.5,188.5C 162.913,185.018 162.913,181.685 165.5,178.5C 166.15,178.196 166.817,177.863 167.5,177.5C 169.408,179.945 170.908,182.612 172,185.5C 172.64,187.543 172.14,189.21 170.5,190.5 Z"/></g>
<g><path style="opacity:0.91" fill="#71b695" d="M 296.5,207.5 C 299.976,206.357 303.642,206.19 307.5,207C 309.584,207.697 311.251,208.864 312.5,210.5C 307.463,208.36 302.13,207.36 296.5,207.5 Z"/></g>
<g><path style="opacity:0.097" fill="#cfd8f0" d="M 157.5,202.5 C 156.671,207.453 156.337,212.453 156.5,217.5C 155.353,213.354 155.186,209.02 156,204.5C 156.278,203.584 156.778,202.918 157.5,202.5 Z"/></g>
<g><path style="opacity:0.18" fill="#a5b0c2" d="M 239.5,214.5 C 241.027,214.427 242.027,215.094 242.5,216.5C 240.973,216.573 239.973,215.906 239.5,214.5 Z"/></g>
<g><path style="opacity:0.004" fill="#fefffe" d="M 483.5,216.5 C 484.833,217.167 484.833,217.167 483.5,216.5 Z"/></g>
<g><path style="opacity:0.941" fill="#7e6d4f" d="M 158.5,210.5 C 158.336,213.187 158.503,215.854 159,218.5C 160.518,219.163 161.685,220.163 162.5,221.5C 159.634,221.367 157.634,220.034 156.5,217.5C 157.167,215.167 157.833,212.833 158.5,210.5 Z"/></g>
<g><path style="opacity:0.918" fill="#458f71" d="M 220.5,238.5 C 219.833,235.5 219.167,232.5 218.5,229.5C 217.102,222.933 213.102,218.766 206.5,217C 203.446,216.179 200.446,216.345 197.5,217.5C 194.464,219.552 191.464,221.552 188.5,223.5C 193.448,215.859 200.448,213.359 209.5,216C 219.364,220.643 223.03,228.143 220.5,238.5 Z"/></g>
<g><path style="opacity:1" fill="#40cf5c" d="M 293.5,237.5 C 288.878,232.274 287.212,226.274 288.5,219.5C 293.782,211.294 300.782,209.46 309.5,214C 314.259,218.491 315.759,223.991 314,230.5C 312.923,233.913 310.756,236.413 307.5,238C 302.78,238.717 298.114,238.55 293.5,237.5 Z"/></g>
<g><path style="opacity:1" fill="#02884e" d="M 218.5,229.5 C 218.563,234.203 218.229,238.87 217.5,243.5C 215.071,243.585 213.071,244.585 211.5,246.5C 207.016,247.811 202.683,247.811 198.5,246.5C 213.84,246.994 219.007,239.994 214,225.5C 207.611,219.495 200.777,218.995 193.5,224C 190.835,228.432 189.835,233.266 190.5,238.5C 188.714,236.586 187.714,234.252 187.5,231.5C 188.095,228.86 188.428,226.193 188.5,223.5C 191.464,221.552 194.464,219.552 197.5,217.5C 200.446,216.345 203.446,216.179 206.5,217C 213.102,218.766 217.102,222.933 218.5,229.5 Z"/></g>
<g><path style="opacity:1" fill="#0b9449" d="M 296.5,207.5 C 302.13,207.36 307.463,208.36 312.5,210.5C 313.343,213.516 314.843,216.183 317,218.5C 317.839,223.921 317.506,229.254 316,234.5C 314.989,235.337 313.822,235.67 312.5,235.5C 312.5,236.833 312.5,238.167 312.5,239.5C 307.519,240.332 302.519,240.498 297.5,240C 295.68,239.8 294.347,238.966 293.5,237.5C 298.114,238.55 302.78,238.717 307.5,238C 310.756,236.413 312.923,233.913 314,230.5C 315.759,223.991 314.259,218.491 309.5,214C 300.782,209.46 293.782,211.294 288.5,219.5C 288.5,217.833 288.5,216.167 288.5,214.5C 289.5,214.5 290.5,214.5 291.5,214.5C 291.5,213.5 291.5,212.5 291.5,211.5C 293.506,210.515 295.173,209.182 296.5,207.5 Z"/></g>
<g><path style="opacity:1" fill="#43946b" d="M 296.5,207.5 C 295.173,209.182 293.506,210.515 291.5,211.5C 287.401,213.642 285.401,217.142 285.5,222C 286.743,227.165 286.743,232.331 285.5,237.5C 283.255,239.361 280.588,240.361 277.5,240.5C 279.606,237.945 281.94,235.612 284.5,233.5C 280.847,223.626 283.18,215.46 291.5,209C 293.025,207.991 294.692,207.491 296.5,207.5 Z"/></g>
<g><path style="opacity:0.004" fill="#fefffe" d="M 395.5,224.5 C 396.833,225.167 396.833,225.167 395.5,224.5 Z"/></g>
<g><path style="opacity:0.004" fill="#fefffe" d="M 116.5,229.5 C 117.833,230.167 117.833,230.167 116.5,229.5 Z"/></g>
<g><path style="opacity:0.004" fill="#fefffe" d="M 476.5,229.5 C 477.833,230.167 477.833,230.167 476.5,229.5 Z"/></g>
<g><path style="opacity:0.202" fill="#b4e1d6" d="M 243.5,217.5 C 243.833,217.5 244.167,217.5 244.5,217.5C 244.5,233.5 244.5,249.5 244.5,265.5C 243.833,264.833 243.167,264.167 242.5,263.5C 243.408,248.088 243.742,232.755 243.5,217.5 Z"/></g>
<g><path style="opacity:0.004" fill="#fefffe" d="M 120.5,237.5 C 121.833,238.167 121.833,238.167 120.5,237.5 Z"/></g>
<g><path style="opacity:1" fill="#0f6446" d="M 244.5,217.5 C 247.582,219.181 250.915,219.848 254.5,219.5C 254.5,219.833 254.5,220.167 254.5,220.5C 251.807,221.552 249.14,222.552 246.5,223.5C 246.5,234.167 246.5,244.833 246.5,255.5C 247.089,259.971 246.423,263.971 244.5,267.5C 244.5,266.833 244.5,266.167 244.5,265.5C 244.5,249.5 244.5,233.5 244.5,217.5 Z"/></g>
<g><path style="opacity:0.004" fill="#fefffe" d="M 390.5,238.5 C 391.833,239.167 391.833,239.167 390.5,238.5 Z"/></g>
<g><path style="opacity:1" fill="#36885f" d="M 312.5,210.5 C 315.529,212.372 317.695,215.039 319,218.5C 321.614,228.109 319.114,235.942 311.5,242C 305.351,245.017 299.184,245.184 293,242.5C 289.039,245.887 284.873,248.887 280.5,251.5C 282.823,248.014 285.323,244.68 288,241.5C 289.992,240.335 291.825,239.002 293.5,237.5C 294.347,238.966 295.68,239.8 297.5,240C 302.519,240.498 307.519,240.332 312.5,239.5C 312.5,238.167 312.5,236.833 312.5,235.5C 313.822,235.67 314.989,235.337 316,234.5C 317.506,229.254 317.839,223.921 317,218.5C 314.843,216.183 313.343,213.516 312.5,210.5 Z"/></g>
<g><path style="opacity:1" fill="#05b164" d="M 198.5,246.5 C 195.386,244.263 192.719,241.597 190.5,238.5C 189.835,233.266 190.835,228.432 193.5,224C 200.777,218.995 207.611,219.495 214,225.5C 219.007,239.994 213.84,246.994 198.5,246.5 Z"/></g>
<g><path style="opacity:0.004" fill="#fefffe" d="M 371.5,242.5 C 372.833,243.167 372.833,243.167 371.5,242.5 Z"/></g>
<g><path style="opacity:0.201" fill="#ace8d0" d="M 255.5,217.5 C 255.333,230.171 255.5,242.838 256,255.5C 256.383,256.056 256.883,256.389 257.5,256.5C 257.189,257.478 256.522,258.145 255.5,258.5C 254.501,245.851 254.168,233.184 254.5,220.5C 254.5,220.167 254.5,219.833 254.5,219.5C 254.328,218.508 254.662,217.842 255.5,217.5 Z"/></g>
<g><path style="opacity:1" fill="#059153" d="M 291.5,211.5 C 291.5,212.5 291.5,213.5 291.5,214.5C 290.5,214.5 289.5,214.5 288.5,214.5C 288.5,216.167 288.5,217.833 288.5,219.5C 287.212,226.274 288.878,232.274 293.5,237.5C 291.825,239.002 289.992,240.335 288,241.5C 285.323,244.68 282.823,248.014 280.5,251.5C 277.105,250.944 274.938,252.277 274,255.5C 270.766,257.993 267.933,257.493 265.5,254C 266.722,251.035 268.222,250.868 270,253.5C 270.409,249.014 272.576,245.68 276.5,243.5C 277.386,242.675 277.719,241.675 277.5,240.5C 280.588,240.361 283.255,239.361 285.5,237.5C 286.743,232.331 286.743,227.165 285.5,222C 285.401,217.142 287.401,213.642 291.5,211.5 Z"/></g>
<g><path style="opacity:1" fill="#449470" d="M 220.5,239.5 C 220.357,241.262 220.691,242.929 221.5,244.5C 228.819,250.486 235.819,256.819 242.5,263.5C 243.167,264.167 243.833,264.833 244.5,265.5C 244.5,266.167 244.5,266.833 244.5,267.5C 243.193,266.847 241.86,266.18 240.5,265.5C 235.803,259.136 230.136,253.803 223.5,249.5C 222.547,247.39 220.881,246.223 218.5,246C 219.117,243.723 219.784,241.556 220.5,239.5 Z"/></g>
<g><path style="opacity:1" fill="#32755a" d="M 188.5,223.5 C 188.428,226.193 188.095,228.86 187.5,231.5C 187.714,234.252 188.714,236.586 190.5,238.5C 190.198,242.794 191.864,245.961 195.5,248C 202.02,250.508 208.686,251.174 215.5,250C 216.167,251.333 216.833,252.667 217.5,254C 221.55,258.105 226.05,261.605 231,264.5C 231.483,265.448 231.649,266.448 231.5,267.5C 232.552,267.351 233.552,267.517 234.5,268C 235.333,269.5 236.5,270.667 238,271.5C 238.199,273.402 239.033,274.902 240.5,276C 239.944,276.383 239.611,276.883 239.5,277.5C 230.724,268.894 221.724,260.394 212.5,252C 192.652,254.84 183.819,246.34 186,226.5C 186.852,225.429 187.685,224.429 188.5,223.5 Z"/></g>
<g><path style="opacity:0.004" fill="#fefffe" d="M 463.5,256.5 C 464.833,257.167 464.833,257.167 463.5,256.5 Z"/></g>
<g><path style="opacity:1" fill="#057e4d" d="M 218.5,229.5 C 219.167,232.5 219.833,235.5 220.5,238.5C 220.5,238.833 220.5,239.167 220.5,239.5C 219.784,241.556 219.117,243.723 218.5,246C 220.881,246.223 222.547,247.39 223.5,249.5C 220.961,247.879 219.794,248.546 220,251.5C 226.216,256.927 232.216,262.593 238,268.5C 240.53,272.192 242.363,276.192 243.5,280.5C 242.363,279.211 241.03,278.211 239.5,277.5C 239.611,276.883 239.944,276.383 240.5,276C 239.033,274.902 238.199,273.402 238,271.5C 236.5,270.667 235.333,269.5 234.5,268C 233.552,267.517 232.552,267.351 231.5,267.5C 231.649,266.448 231.483,265.448 231,264.5C 226.05,261.605 221.55,258.105 217.5,254C 216.833,252.667 216.167,251.333 215.5,250C 208.686,251.174 202.02,250.508 195.5,248C 191.864,245.961 190.198,242.794 190.5,238.5C 192.719,241.597 195.386,244.263 198.5,246.5C 202.683,247.811 207.016,247.811 211.5,246.5C 213.071,244.585 215.071,243.585 217.5,243.5C 218.229,238.87 218.563,234.203 218.5,229.5 Z"/></g>
<g><path style="opacity:0.004" fill="#fefffe" d="M 47.5,265.5 C 48.8333,266.167 48.8333,266.167 47.5,265.5 Z"/></g>
<g><path style="opacity:1" fill="#089357" d="M 268.5,298.5 C 264.774,301.816 261.274,305.483 258,309.5C 258.075,312.085 258.908,314.418 260.5,316.5C 261.184,318.449 262.351,320.115 264,321.5C 264.667,320.167 265.333,320.167 266,321.5C 266.743,323.441 266.576,325.274 265.5,327C 262.929,327.901 260.596,329.234 258.5,331C 251.805,331.665 245.138,331.498 238.5,330.5C 238.338,328.176 237.172,326.509 235,325.5C 234.333,323.833 234.333,322.167 235,320.5C 239.445,318.445 243.112,315.445 246,311.5C 246.667,302.833 246.667,294.167 246,285.5C 244.628,284.09 243.795,282.423 243.5,280.5C 242.363,276.192 240.53,272.192 238,268.5C 232.216,262.593 226.216,256.927 220,251.5C 219.794,248.546 220.961,247.879 223.5,249.5C 230.136,253.803 235.803,259.136 240.5,265.5C 241.86,266.18 243.193,266.847 244.5,267.5C 246.423,263.971 247.089,259.971 246.5,255.5C 247.494,245.347 247.828,235.014 247.5,224.5C 249.167,224.5 250.833,224.5 252.5,224.5C 252.333,235.838 252.5,247.172 253,258.5C 255.916,260.013 258.582,259.68 261,257.5C 262.236,258.399 263.07,259.566 263.5,261C 260.421,266.492 257.087,271.825 253.5,277C 254.108,283.158 254.775,289.325 255.5,295.5C 257.452,293.467 259.618,293.134 262,294.5C 263.925,293.12 265.759,291.62 267.5,290C 267.167,289.667 266.833,289.333 266.5,289C 267.833,288.333 268.833,287.333 269.5,286C 271.519,285.55 273.352,284.717 275,283.5C 275.498,286.482 275.665,289.482 275.5,292.5C 273.071,292.884 270.737,293.551 268.5,294.5C 268.5,295.833 268.5,297.167 268.5,298.5 Z"/></g>
<g><path style="opacity:0.004" fill="#fefffe" d="M 60.5,277.5 C 61.8333,278.167 61.8333,278.167 60.5,277.5 Z"/></g>
<g><path style="opacity:0.004" fill="#fefffe" d="M 343.5,278.5 C 344.833,279.167 344.833,279.167 343.5,278.5 Z"/></g>
<g><path style="opacity:1" fill="#2e8c5f" d="M 254.5,220.5 C 254.168,233.184 254.501,245.851 255.5,258.5C 256.522,258.145 257.189,257.478 257.5,256.5C 264.142,251.197 270.809,245.864 277.5,240.5C 277.719,241.675 277.386,242.675 276.5,243.5C 272.576,245.68 270.409,249.014 270,253.5C 268.222,250.868 266.722,251.035 265.5,254C 267.933,257.493 270.766,257.993 274,255.5C 274.938,252.277 277.105,250.944 280.5,251.5C 275.508,256.488 270.175,261.154 264.5,265.5C 257.347,273.428 254.514,282.761 256,293.5C 260.923,289.955 265.756,286.288 270.5,282.5C 270.467,275.833 272.3,269.833 276,264.5C 284.655,256.57 293.155,256.57 301.5,264.5C 298.259,262.808 294.759,261.808 291,261.5C 287.477,261.837 283.977,262.337 280.5,263C 279.667,265.167 278.167,266.667 276,267.5C 275.436,270.155 274.936,272.821 274.5,275.5C 274.34,277.355 275.007,278.688 276.5,279.5C 276.963,282.482 277.296,285.482 277.5,288.5C 281.148,290.393 285.148,291.393 289.5,291.5C 293.624,291.467 297.624,290.801 301.5,289.5C 299.747,291.223 297.747,292.723 295.5,294C 289.294,295.245 283.461,294.412 278,291.5C 275.219,294.462 272.052,296.796 268.5,298.5C 268.5,297.167 268.5,295.833 268.5,294.5C 270.737,293.551 273.071,292.884 275.5,292.5C 275.665,289.482 275.498,286.482 275,283.5C 273.352,284.717 271.519,285.55 269.5,286C 268.833,287.333 267.833,288.333 266.5,289C 266.833,289.333 267.167,289.667 267.5,290C 265.759,291.62 263.925,293.12 262,294.5C 259.618,293.134 257.452,293.467 255.5,295.5C 254.775,289.325 254.108,283.158 253.5,277C 257.087,271.825 260.421,266.492 263.5,261C 263.07,259.566 262.236,258.399 261,257.5C 258.582,259.68 255.916,260.013 253,258.5C 252.5,247.172 252.333,235.838 252.5,224.5C 250.833,224.5 249.167,224.5 247.5,224.5C 247.828,235.014 247.494,245.347 246.5,255.5C 246.5,244.833 246.5,234.167 246.5,223.5C 249.14,222.552 251.807,221.552 254.5,220.5 Z"/></g>
<g><path style="opacity:0.004" fill="#fefffe" d="M 356.5,289.5 C 357.833,290.167 357.833,290.167 356.5,289.5 Z"/></g>
<g><path style="opacity:1" fill="#138d48" d="M 301.5,264.5 C 303.173,265.343 304.34,266.676 305,268.5C 306.908,273.845 306.908,279.178 305,284.5C 304.303,286.584 303.136,288.251 301.5,289.5C 297.624,290.801 293.624,291.467 289.5,291.5C 285.148,291.393 281.148,290.393 277.5,288.5C 277.296,285.482 276.963,282.482 276.5,279.5C 275.007,278.688 274.34,277.355 274.5,275.5C 274.936,272.821 275.436,270.155 276,267.5C 278.167,266.667 279.667,265.167 280.5,263C 283.977,262.337 287.477,261.837 291,261.5C 294.759,261.808 298.259,262.808 301.5,264.5 Z"/></g>
<g><path style="opacity:1" fill="#46cf6c" d="M 300.5,282.5 C 301.351,270.185 295.685,265.018 283.5,267C 275.536,276.628 277.369,283.795 289,288.5C 290.766,287.767 292.599,287.433 294.5,287.5C 286.025,290.937 280.025,288.271 276.5,279.5C 276.527,267.314 282.527,262.481 294.5,265C 301.288,269.223 303.288,275.056 300.5,282.5 Z"/></g>
<g><path style="opacity:1" fill="#3dcf56" d="M 300.5,282.5 C 299.69,285.646 297.69,287.313 294.5,287.5C 292.599,287.433 290.766,287.767 289,288.5C 277.369,283.795 275.536,276.628 283.5,267C 295.685,265.018 301.351,270.185 300.5,282.5 Z"/></g>
<g><path style="opacity:0.004" fill="#fefffe" d="M 423.5,293.5 C 424.833,294.167 424.833,294.167 423.5,293.5 Z"/></g>
<g><path style="opacity:0.004" fill="#fefffe" d="M 395.5,301.5 C 396.833,302.167 396.833,302.167 395.5,301.5 Z"/></g>
<g><path style="opacity:0.004" fill="#fefffe" d="M 70.5,306.5 C 71.8333,307.167 71.8333,307.167 70.5,306.5 Z"/></g>
<g><path style="opacity:0.004" fill="#fefffe" d="M 129.5,306.5 C 130.833,307.167 130.833,307.167 129.5,306.5 Z"/></g>
<g><path style="opacity:0.004" fill="#fefffe" d="M 193.5,310.5 C 194.833,311.167 194.833,311.167 193.5,310.5 Z"/></g>
<g><path style="opacity:1" fill="#3b8364" d="M 239.5,277.5 C 241.03,278.211 242.363,279.211 243.5,280.5C 243.795,282.423 244.628,284.09 246,285.5C 246.667,294.167 246.667,302.833 246,311.5C 243.112,315.445 239.445,318.445 235,320.5C 234.333,322.167 234.333,323.833 235,325.5C 237.172,326.509 238.338,328.176 238.5,330.5C 245.138,331.498 251.805,331.665 258.5,331C 260.596,329.234 262.929,327.901 265.5,327C 266.576,325.274 266.743,323.441 266,321.5C 265.333,320.167 264.667,320.167 264,321.5C 262.351,320.115 261.184,318.449 260.5,316.5C 267.866,318.313 269.866,322.48 266.5,329C 258.687,333.264 250.354,334.597 241.5,333C 228.716,327.994 228.216,321.828 240,314.5C 241,312.5 242,310.5 243,308.5C 244.504,297.732 243.337,287.399 239.5,277.5 Z"/></g>
<g><path style="opacity:0.004" fill="#fefffe" d="M 203.5,318.5 C 204.833,319.167 204.833,319.167 203.5,318.5 Z"/></g>
<g><path style="opacity:0.004" fill="#fefffe" d="M 197.5,332.5 C 198.833,333.167 198.833,333.167 197.5,332.5 Z"/></g>
<g><path style="opacity:0.004" fill="#fefffe" d="M 393.5,336.5 C 394.833,337.167 394.833,337.167 393.5,336.5 Z"/></g>
<g><path style="opacity:0.004" fill="#fefffe" d="M 244.5,340.5 C 245.833,341.167 245.833,341.167 244.5,340.5 Z"/></g>
<g><path style="opacity:0.004" fill="#fefffe" d="M 225.5,343.5 C 226.833,344.167 226.833,344.167 225.5,343.5 Z"/></g>
<g><path style="opacity:1" fill="#25a150" d="M 369.5,346.5 C 369.509,348.308 369.009,349.975 368,351.5C 367.667,350.833 367.333,350.167 367,349.5C 366.506,351.134 366.34,352.801 366.5,354.5C 358.271,355.592 355.271,352.259 357.5,344.5C 357.611,343.883 357.944,343.383 358.5,343C 361.167,342.333 363.833,342.333 366.5,343C 368.063,343.759 369.063,344.926 369.5,346.5 Z"/></g>
<g><path style="opacity:0.988" fill="#5da677" d="M 316.5,345.5 C 326.965,343.034 336.798,344.701 346,350.5C 346.249,352.668 345.416,354.335 343.5,355.5C 343.66,353.801 343.494,352.134 343,350.5C 334.772,345.968 325.939,344.301 316.5,345.5 Z"/></g>
<g><path style="opacity:0.106" fill="#59a975" d="M 390.5,361.5 C 390.167,361.5 389.833,361.5 389.5,361.5C 389.5,357.833 389.5,354.167 389.5,350.5C 386.5,350.5 383.5,350.5 380.5,350.5C 380.665,353.518 380.498,356.518 380,359.5C 379.329,360.252 378.496,360.586 377.5,360.5C 378.165,357.197 378.832,353.863 379.5,350.5C 383.107,349.511 386.774,349.177 390.5,349.5C 390.5,353.5 390.5,357.5 390.5,361.5 Z"/></g>
<g><path style="opacity:1" fill="#4ca06b" d="M 357.5,344.5 C 355.271,352.259 358.271,355.592 366.5,354.5C 366.34,352.801 366.506,351.134 367,349.5C 367.333,350.167 367.667,350.833 368,351.5C 369.009,349.975 369.509,348.308 369.5,346.5C 370.766,348.694 370.766,351.028 369.5,353.5C 367.08,355.696 364.246,357.03 361,357.5C 357.014,356.343 355.181,353.676 355.5,349.5C 355.556,347.36 356.223,345.694 357.5,344.5 Z"/></g>
<g><path style="opacity:0.949" fill="#58ab7a" d="M 328.5,355.5 C 323.295,355.608 318.295,356.608 313.5,358.5C 313.511,356.983 314.177,355.816 315.5,355C 320.02,354.186 324.354,354.353 328.5,355.5 Z"/></g>
<g><path style="opacity:1" fill="#60aa74" d="M 343.5,355.5 C 341.497,361.173 338.497,361.84 334.5,357.5C 336.545,355.941 339.545,355.274 343.5,355.5 Z"/></g>
<g><path style="opacity:0.004" fill="#fefffe" d="M 458.5,357.5 C 457.833,356.167 457.833,356.167 458.5,357.5 Z"/></g>
<g><path style="opacity:0.004" fill="#fefffe" d="M 458.5,357.5 C 459.833,358.167 459.833,358.167 458.5,357.5 Z"/></g>
<g><path style="opacity:1" fill="#294d79" d="M 150.5,343.5 C 154.5,343.5 158.5,343.5 162.5,343.5C 162.5,364.167 162.5,384.833 162.5,405.5C 158.5,405.5 154.5,405.5 150.5,405.5C 150.334,384.98 150.334,364.313 150.5,343.5 Z"/></g>
<g><path style="opacity:1" fill="#18a04b" d="M 316.5,345.5 C 325.939,344.301 334.772,345.968 343,350.5C 343.494,352.134 343.66,353.801 343.5,355.5C 339.545,355.274 336.545,355.941 334.5,357.5C 332.374,356.952 330.374,356.285 328.5,355.5C 324.354,354.353 320.02,354.186 315.5,355C 314.177,355.816 313.511,356.983 313.5,358.5C 302.316,370.672 302.983,382.005 315.5,392.5C 315.577,393.75 316.244,394.583 317.5,395C 323.167,395.667 328.833,395.667 334.5,395C 336.059,393.004 336.726,390.671 336.5,388C 336.494,385.967 336.161,384.134 335.5,382.5C 332.038,381.518 328.371,381.185 324.5,381.5C 324.5,378.5 324.5,375.5 324.5,372.5C 332.573,371.868 340.24,372.535 347.5,374.5C 347.698,382.534 347.365,390.534 346.5,398.5C 341.479,400.648 336.146,401.648 330.5,401.5C 325.642,401.921 321.142,400.921 317,398.5C 315.796,399.471 315.296,400.471 315.5,401.5C 311.644,399.438 307.644,397.772 303.5,396.5C 303.66,394.801 303.494,393.134 303,391.5C 301.667,392.833 300.333,392.833 299,391.5C 298.689,389.444 298.189,387.444 297.5,385.5C 298.172,383.14 297.339,381.14 295,379.5C 294.247,374.625 294.414,369.792 295.5,365C 297.38,362.742 298.88,360.242 300,357.5C 301.011,356.663 302.178,356.33 303.5,356.5C 303.5,354.833 303.5,353.167 303.5,351.5C 307.037,347.978 311.37,345.978 316.5,345.5 Z"/></g>
<g><path style="opacity:1" fill="#15a04a" d="M 389.5,361.5 C 393.298,362.483 397.298,362.817 401.5,362.5C 401.5,365.167 401.5,367.833 401.5,370.5C 397.486,370.334 393.486,370.501 389.5,371C 388.354,378.086 388.188,385.253 389,392.5C 391.989,395.794 395.822,397.294 400.5,397C 401.38,398.356 401.714,399.856 401.5,401.5C 401.423,402.75 400.756,403.583 399.5,404C 397.833,404.167 396.167,404.333 394.5,404.5C 390.76,404.124 387.094,403.457 383.5,402.5C 380.593,400.685 379.259,398.019 379.5,394.5C 379.5,386.833 379.5,379.167 379.5,371.5C 377.833,371.5 376.167,371.5 374.5,371.5C 374.5,368.167 374.5,364.833 374.5,361.5C 375.791,361.737 376.791,361.404 377.5,360.5C 378.496,360.586 379.329,360.252 380,359.5C 380.498,356.518 380.665,353.518 380.5,350.5C 383.5,350.5 386.5,350.5 389.5,350.5C 389.5,354.167 389.5,357.833 389.5,361.5 Z"/></g>
<g><path style="opacity:1" fill="#234674" d="M 210.5,403.5 C 205.572,404.903 201.572,403.569 198.5,399.5C 196.867,400.744 195.867,400.244 195.5,398C 197.548,395.245 197.882,392.411 196.5,389.5C 196.443,388.391 196.11,387.391 195.5,386.5C 190.052,384.239 184.552,384.239 179,386.5C 177.273,391.791 178.773,395.624 183.5,398C 197.751,398.989 197.917,400.823 184,403.5C 180.215,402.515 176.382,401.849 172.5,401.5C 167.967,396.31 167.467,390.643 171,384.5C 177.971,377.883 186.137,375.883 195.5,378.5C 196.747,376.994 196.747,375.494 195.5,374C 192.991,372.664 190.324,371.83 187.5,371.5C 183.284,372.472 179.284,373.639 175.5,375C 173.603,372.061 172.77,368.895 173,365.5C 181.561,360.324 190.727,359.157 200.5,362C 206.46,364.967 209.627,369.801 210,376.5C 210.5,385.494 210.666,394.494 210.5,403.5 Z M 195.5,386.5 C 196.11,387.391 196.443,388.391 196.5,389.5C 194.378,395.904 190.045,397.904 183.5,395.5C 183.573,393.973 182.906,392.973 181.5,392.5C 181.137,390.089 182.137,388.589 184.5,388C 188.06,386.763 191.727,386.263 195.5,386.5 Z"/></g>
<g><path style="opacity:1" fill="#204470" d="M 116.5,344.5 C 122.509,344.334 128.509,344.501 134.5,345C 138.98,346.072 142.647,348.406 145.5,352C 143.767,355.283 141.433,358.116 138.5,360.5C 130.901,355.883 123.234,355.383 115.5,359C 103.525,369.907 103.525,380.907 115.5,392C 123.842,395.777 131.675,394.943 139,389.5C 142.072,392.331 144.072,395.664 145,399.5C 129.889,409.257 115.222,408.59 101,397.5C 90.6548,381.984 91.1548,366.817 102.5,352C 106.696,348.449 111.362,345.949 116.5,344.5 Z"/></g>
<g><path style="opacity:1" fill="#546a88" d="M 246.5,363.5 C 247.88,363.962 248.547,364.962 248.5,366.5C 247.764,369.644 246.264,372.311 244,374.5C 240.692,373.239 237.525,371.906 234.5,370.5C 236.262,370.357 237.929,370.691 239.5,371.5C 241.115,370.846 242.782,370.346 244.5,370C 245.191,368.933 245.691,367.766 246,366.5C 246.654,367.696 247.154,367.696 247.5,366.5C 246.873,365.583 246.539,364.583 246.5,363.5 Z"/></g>
<g><path style="opacity:0.004" fill="#fefffe" d="M 435.5,370.5 C 436.833,371.167 436.833,371.167 435.5,370.5 Z"/></g>
<g><path style="opacity:0.58" fill="#77c195" d="M 348.5,374.5 C 348.167,374.5 347.833,374.5 347.5,374.5C 340.24,372.535 332.573,371.868 324.5,372.5C 324.5,375.5 324.5,378.5 324.5,381.5C 328.371,381.185 332.038,381.518 335.5,382.5C 331.5,382.5 327.5,382.5 323.5,382.5C 323.5,378.833 323.5,375.167 323.5,371.5C 331.84,371.334 340.173,371.5 348.5,372C 350.842,373.392 350.842,374.225 348.5,374.5 Z"/></g>
<g><path style="opacity:0.153" fill="#82c29c" d="M 402.5,361.5 C 403.482,364.962 403.815,368.629 403.5,372.5C 399.167,372.5 394.833,372.5 390.5,372.5C 394.298,371.517 398.298,371.183 402.5,371.5C 402.5,368.167 402.5,364.833 402.5,361.5 Z"/></g>
<g><path style="opacity:0.239" fill="#84c4a0" d="M 374.5,361.5 C 374.5,364.833 374.5,368.167 374.5,371.5C 376.167,371.5 377.833,371.5 379.5,371.5C 379.5,379.167 379.5,386.833 379.5,394.5C 378.508,387.352 378.175,380.019 378.5,372.5C 376.833,372.5 375.167,372.5 373.5,372.5C 372.841,369.502 372.508,366.668 372.5,364C 372.639,362.699 373.305,361.866 374.5,361.5 Z"/></g>
<g><path style="opacity:1" fill="#274975" d="M 246.5,363.5 C 246.539,364.583 246.873,365.583 247.5,366.5C 247.154,367.696 246.654,367.696 246,366.5C 245.691,367.766 245.191,368.933 244.5,370C 242.782,370.346 241.115,370.846 239.5,371.5C 237.929,370.691 236.262,370.357 234.5,370.5C 230.513,370.011 228.18,371.678 227.5,375.5C 232.09,376.986 236.757,378.486 241.5,380C 249.3,383.965 251.8,390.132 249,398.5C 244.397,404.132 238.397,406.798 231,406.5C 224.392,406.299 218.558,404.132 213.5,400C 215.161,397.147 217.161,394.647 219.5,392.5C 224.979,395.101 230.645,396.101 236.5,395.5C 237.649,395.209 238.316,394.376 238.5,393C 238.472,391.93 238.139,391.097 237.5,390.5C 231.251,389.378 225.251,387.378 219.5,384.5C 211.666,374.675 213.333,366.841 224.5,361C 229.833,360.333 235.167,360.333 240.5,361C 242.723,361.566 244.723,362.4 246.5,363.5 Z"/></g>
<g><path style="opacity:0.455" fill="#86c6a2" d="M 357.5,361.5 C 357.5,375.833 357.5,390.167 357.5,404.5C 360.833,404.5 364.167,404.5 367.5,404.5C 367.5,390.167 367.5,375.833 367.5,361.5C 368.478,361.811 369.145,362.478 369.5,363.5C 368.335,377.149 368.335,390.649 369.5,404C 365.365,405.431 361.032,405.931 356.5,405.5C 356.171,390.657 356.504,375.99 357.5,361.5 Z"/></g>
<g><path style="opacity:0.969" fill="#218f4c" d="M 357.5,361.5 C 360.833,361.5 364.167,361.5 367.5,361.5C 367.5,375.833 367.5,390.167 367.5,404.5C 364.167,404.5 360.833,404.5 357.5,404.5C 357.5,390.167 357.5,375.833 357.5,361.5 Z"/></g>
<g><path style="opacity:1" fill="#11a14a" d="M 358.5,362.5 C 361.167,362.5 363.833,362.5 366.5,362.5C 366.5,376.167 366.5,389.833 366.5,403.5C 363.833,403.5 361.167,403.5 358.5,403.5C 358.5,389.833 358.5,376.167 358.5,362.5 Z"/></g>
<g><path style="opacity:1" fill="#329755" d="M 389.5,361.5 C 389.833,361.5 390.167,361.5 390.5,361.5C 394.5,361.5 398.5,361.5 402.5,361.5C 402.5,364.833 402.5,368.167 402.5,371.5C 398.298,371.183 394.298,371.517 390.5,372.5C 390.334,378.176 390.501,383.843 391,389.5C 391.223,391.881 392.39,393.547 394.5,394.5C 396.746,395.21 399.08,395.71 401.5,396C 402.26,397.441 402.926,398.941 403.5,400.5C 403.043,401.298 402.376,401.631 401.5,401.5C 401.714,399.856 401.38,398.356 400.5,397C 395.822,397.294 391.989,395.794 389,392.5C 388.188,385.253 388.354,378.086 389.5,371C 393.486,370.501 397.486,370.334 401.5,370.5C 401.5,367.833 401.5,365.167 401.5,362.5C 397.298,362.817 393.298,362.483 389.5,361.5 Z"/></g>
<g><path style="opacity:0.047" fill="#9daac3" d="M 237.5,390.5 C 238.139,391.097 238.472,391.93 238.5,393C 238.316,394.376 237.649,395.209 236.5,395.5C 236.366,393.708 236.699,392.042 237.5,390.5 Z"/></g>
<g><path style="opacity:0.059" fill="#d3e7f5" d="M 287.5,386.5 C 288.117,386.611 288.617,386.944 289,387.5C 289.801,390.367 289.634,393.034 288.5,395.5C 288.632,392.43 288.299,389.43 287.5,386.5 Z"/></g>
<g><path style="opacity:1" fill="#335076" d="M 195.5,386.5 C 191.727,386.263 188.06,386.763 184.5,388C 182.137,388.589 181.137,390.089 181.5,392.5C 181.427,394.027 182.094,395.027 183.5,395.5C 190.045,397.904 194.378,395.904 196.5,389.5C 197.882,392.411 197.548,395.245 195.5,398C 195.867,400.244 196.867,400.744 198.5,399.5C 201.572,403.569 205.572,404.903 210.5,403.5C 206.971,405.423 202.971,406.089 198.5,405.5C 198.839,400.633 197.672,400.299 195,404.5C 194.667,404.167 194.333,403.833 194,403.5C 186.296,407.795 179.13,407.128 172.5,401.5C 176.382,401.849 180.215,402.515 184,403.5C 197.917,400.823 197.751,398.989 183.5,398C 178.773,395.624 177.273,391.791 179,386.5C 184.552,384.239 190.052,384.239 195.5,386.5 Z"/></g>
<g><path style="opacity:0.043" fill="#cad9ec" d="M 181.5,392.5 C 182.906,392.973 183.573,393.973 183.5,395.5C 182.094,395.027 181.427,394.027 181.5,392.5 Z"/></g>
<g><path style="opacity:1" fill="#264873" d="M 287.5,386.5 C 288.299,389.43 288.632,392.43 288.5,395.5C 286.512,401.634 282.179,405.134 275.5,406C 268.09,406.851 261.09,405.518 254.5,402C 253.863,398.865 254.529,395.865 256.5,393C 261.252,393.895 266.085,395.062 271,396.5C 277.015,395.624 277.848,393.291 273.5,389.5C 265.963,389.058 259.797,386.058 255,380.5C 252.013,371.461 254.846,364.961 263.5,361C 268.833,360.333 274.167,360.333 279.5,361C 283.74,361.593 286.24,363.76 287,367.5C 286.218,370.216 284.884,372.55 283,374.5C 277.77,371.141 272.27,370.308 266.5,372C 267.833,373 267.833,374 266.5,375C 271.822,376.998 277.155,378.998 282.5,381C 285.079,382.076 286.746,383.909 287.5,386.5 Z"/></g>
<g><path style="opacity:1" fill="#309854" d="M 303.5,351.5 C 303.5,353.167 303.5,354.833 303.5,356.5C 302.178,356.33 301.011,356.663 300,357.5C 298.88,360.242 297.38,362.742 295.5,365C 294.414,369.792 294.247,374.625 295,379.5C 297.339,381.14 298.172,383.14 297.5,385.5C 298.189,387.444 298.689,389.444 299,391.5C 300.333,392.833 301.667,392.833 303,391.5C 303.494,393.134 303.66,394.801 303.5,396.5C 307.644,397.772 311.644,399.438 315.5,401.5C 315.296,400.471 315.796,399.471 317,398.5C 321.142,400.921 325.642,401.921 330.5,401.5C 336.146,401.648 341.479,400.648 346.5,398.5C 347.365,390.534 347.698,382.534 347.5,374.5C 347.833,374.5 348.167,374.5 348.5,374.5C 348.831,382.86 348.498,391.193 347.5,399.5C 343.957,402.272 339.957,403.939 335.5,404.5C 328.5,404.5 321.5,404.5 314.5,404.5C 304.063,402.235 297.229,395.902 294,385.5C 290.49,372.132 293.657,360.799 303.5,351.5 Z"/></g>
<g><path style="opacity:0.961" fill="#5ead7a" d="M 335.5,382.5 C 336.161,384.134 336.494,385.967 336.5,388C 336.726,390.671 336.059,393.004 334.5,395C 328.833,395.667 323.167,395.667 317.5,395C 316.244,394.583 315.577,393.75 315.5,392.5C 317.228,393.379 319.061,394.046 321,394.5C 324.462,393.87 327.962,393.703 331.5,394C 332.5,393.5 333.5,393 334.5,392.5C 335.487,389.232 335.82,385.898 335.5,382.5 Z"/></g>
<g><path style="opacity:0.996" fill="#60a67a" d="M 394.5,394.5 C 397.101,394.467 399.767,394.467 402.5,394.5C 404.538,397.544 404.872,400.71 403.5,404C 396.364,407.744 389.697,407.244 383.5,402.5C 387.094,403.457 390.76,404.124 394.5,404.5C 396.167,404.333 397.833,404.167 399.5,404C 400.756,403.583 401.423,402.75 401.5,401.5C 402.376,401.631 403.043,401.298 403.5,400.5C 402.926,398.941 402.26,397.441 401.5,396C 399.08,395.71 396.746,395.21 394.5,394.5 Z"/></g>
<g><path style="opacity:0.937" fill="#65af7e" d="M 314.5,404.5 C 321.5,404.5 328.5,404.5 335.5,404.5C 332.062,405.686 328.396,406.353 324.5,406.5C 321.991,405.998 319.658,405.998 317.5,406.5C 316.261,406.058 315.261,405.391 314.5,404.5 Z"/></g>
<g><path style="opacity:0.004" fill="#fefffe" d="M 351.5,408.5 C 352.833,409.167 352.833,409.167 351.5,408.5 Z"/></g>
<g><path style="opacity:0.004" fill="#fefffe" d="M 230.5,413.5 C 231.833,414.167 231.833,414.167 230.5,413.5 Z"/></g>
<g><path style="opacity:0.004" fill="#fefffe" d="M 469.5,415.5 C 470.833,416.167 470.833,416.167 469.5,415.5 Z"/></g>
<g><path style="opacity:0.004" fill="#fefffe" d="M 20.5,420.5 C 21.8333,421.167 21.8333,421.167 20.5,420.5 Z"/></g>
<g><path style="opacity:0.004" fill="#fefffe" d="M 292.5,422.5 C 293.833,423.167 293.833,423.167 292.5,422.5 Z"/></g>
<g><path style="opacity:0.004" fill="#fefffe" d="M 13.5,432.5 C 14.8333,433.167 14.8333,433.167 13.5,432.5 Z"/></g>
<g><path style="opacity:0.004" fill="#fefffe" d="M 338.5,434.5 C 339.833,435.167 339.833,435.167 338.5,434.5 Z"/></g>
<g><path style="opacity:0.004" fill="#fefffe" d="M 467.5,434.5 C 468.833,435.167 468.833,435.167 467.5,434.5 Z"/></g>
<g><path style="opacity:0.004" fill="#fefffe" d="M 337.5,439.5 C 338.833,440.167 338.833,440.167 337.5,439.5 Z"/></g>
<g><path style="opacity:0.004" fill="#fefffe" d="M 485.5,445.5 C 486.833,446.167 486.833,446.167 485.5,445.5 Z"/></g>
<g><path style="opacity:0.004" fill="#fefffe" d="M 197.5,455.5 C 198.833,456.167 198.833,456.167 197.5,455.5 Z"/></g>
<g><path style="opacity:0.004" fill="#fefffe" d="M 182.5,457.5 C 183.833,458.167 183.833,458.167 182.5,457.5 Z"/></g>
<g><path style="opacity:0.004" fill="#fefffe" d="M 29.5,475.5 C 30.8333,476.167 30.8333,476.167 29.5,475.5 Z"/></g>
<g><path style="opacity:0.004" fill="#fefffe" d="M 209.5,475.5 C 210.833,476.167 210.833,476.167 209.5,475.5 Z"/></g>
<g><path style="opacity:0.004" fill="#fefffe" d="M 98.5,477.5 C 99.8333,478.167 99.8333,478.167 98.5,477.5 Z"/></g>
<g><path style="opacity:0.004" fill="#fefffe" d="M 243.5,486.5 C 244.833,487.167 244.833,487.167 243.5,486.5 Z"/></g>
<g><path style="opacity:0.004" fill="#fefffe" d="M 351.5,489.5 C 352.833,490.167 352.833,490.167 351.5,489.5 Z"/></g>
</svg>
